<svg xmlns="http://www.w3.org/2000/svg" viewBox="0 0 64 64">
  <!-- DoughJo coin — the gold octagon "o" from the wordmark -->
  <defs>
    <linearGradient id="coin" x1="0" y1="0" x2="1" y2="1">
      <stop offset="0" stop-color="#FFD84D"/>
      <stop offset="1" stop-color="#DFA000"/>
    </linearGradient>
  </defs>
  <polygon points="20,3 44,3 61,20 61,44 44,61 20,61 3,44 3,20" fill="url(#coin)" stroke="#8A6100" stroke-width="2.5" stroke-linejoin="round"/>
  <polygon points="22.5,8 41.5,8 56,22.5 56,41.5 41.5,56 22.5,56 8,41.5 8,22.5" fill="none" stroke="#FFE566" stroke-width="2" stroke-linejoin="round" opacity=".85"/>
  <path d="M34.6 12.5v4.1c3.9.5 7 2.6 7.6 6.6h-6c-.4-1.3-1.5-2-3.3-2-1.9 0-3 .8-3 2.1 0 1.4 1.2 1.9 4.6 2.7 4.9 1.1 8.2 2.7 8.2 7.3 0 4.2-3 6.7-8.1 7.2v4h-4.9v-4.1c-4.5-.6-7.6-3-8.1-7.2h6.1c.5 1.7 1.9 2.5 4.2 2.5 2.2 0 3.4-.8 3.4-2.2 0-1.6-1.4-2.1-5-3-4.5-1-7.8-2.6-7.8-7 0-3.9 2.9-6.4 7.2-7v-4z" fill="#FFF8E7" stroke="#8A6100" stroke-width="1.4" stroke-linejoin="round"/>
</svg>
